<?xml version="1.0" encoding="utf-8"?>
<!-- Generator: Adobe Illustrator 22.0.1, SVG Export Plug-In . SVG Version: 6.00 Build 0)  -->
<svg version="1.1" xmlns="http://www.w3.org/2000/svg" xmlns:xlink="http://www.w3.org/1999/xlink" x="0px" y="0px"
	 viewBox="0 0 500 500" style="enable-background:new 0 0 500 500;" xml:space="preserve">
<g id="Lag_3">
</g>
<g id="Lag_2">
	<path d="M502.5,502.5h-505v-505h505V502.5z M2.5,497.5h495V2.5H2.5V497.5z"/>
</g>
<g id="Lag_1">
	<g>
		<path d="M74.3,71c4.4-1.1,9.6-1.9,15.3-1.9c10.4,0,17.7,3.9,22.6,11.3c5,7.4,7.9,17.8,7.9,32.4c0,14.7-2.8,26.8-8,35.1
			c-5.2,8.4-13.8,13-24.7,13c-5.1,0-9.4-0.4-13.1-1.1V71z M81.5,150.9c1.8,0.5,4.5,0.7,7.3,0.7c15.4,0,23.8-13.9,23.8-38.3
			c0.1-21.3-7.4-34.8-22.6-34.8c-3.7,0-6.5,0.5-8.4,1.2V150.9z"/>
		<path d="M158.4,117.8h-21.7v32.6h24.2v9.8h-31.4V69.8h30.1v9.8h-22.9v28.5h21.7V117.8z"/>
		<path d="M170.2,160.1V69.8h7.9l17.9,45.7c4.1,10.6,7.4,20.1,10,29.3l0.2-0.1c-0.7-12.1-0.8-23-0.8-37.1V69.8h6.8v90.3h-7.3
			l-17.7-45.8c-3.9-10-7.6-20.4-10.4-30.2l-0.2,0.1c0.4,11.4,0.6,22.2,0.6,37.3v38.6H170.2z"/>
		<path d="M74.3,170.8h7.2v80.5h23.9v9.8H74.3V170.8z"/>
		<path d="M120.6,170.8v90.3h-7.2v-90.3H120.6z"/>
		<path d="M133.2,170.8h7.2v80.5h23.9v9.8h-31.1V170.8z"/>
		<path d="M172.3,170.8h7.2v80.5h23.9v9.8h-31.1V170.8z"/>
		<path d="M240.3,218.8h-21.7v32.6h24.2v9.8h-31.4v-90.3h30.1v9.8h-22.9v28.5h21.7V218.8z"/>
	</g>
</g>
<g id="Lag_4">
	<g>
		<path d="M81.5,344.8v37.8h27v-37.8h7.3v90.3h-7.3v-42.3h-27v42.3h-7.2v-90.3H81.5z"/>
		<path d="M127.2,435.7l5.1-11.8c-4.6-8-7.4-20-7.4-33.4c0-28.5,11.2-47.2,25.8-47.2c5.1,0,9.9,2.4,13.9,7.1l4.9-10.9l4.4,4.8
			l-5.1,11.5c4.6,8.2,7.2,20,7.2,33.2c0,31.5-12,47.4-25.3,47.4c-5.3,0-10.2-2.5-14.2-7.2l-5.2,11.5L127.2,435.7z M161.1,359
			c-2.8-3.9-6.3-6.3-10.4-6.3c-12.2,0-18.3,18.2-18.3,37.1c0,10,1.7,17.3,4.1,24.3l0.1-0.1L161.1,359z M140.1,420.8
			c2.7,4.2,6,6.4,10.4,6.4c11.7,0,18.1-17.3,18.1-37.7c0-7.6-1-15.8-3.9-23.5h-0.2L140.1,420.8z"/>
		<path d="M196.8,344.8h7.2v60.4c0,24-7.3,31.4-16.9,31.4c-2.7,0-5.9-0.9-7.7-2.1l1.1-9.5c1.5,0.9,3.6,1.7,6,1.7
			c6.5,0,10.3-4.7,10.3-22.4V344.8z"/>
		<path d="M215,420.9c3.2,3.2,8,5.9,12.9,5.9c7.4,0,11.7-6.3,11.7-15.4c0-8.4-3-13.3-10.5-18c-9.1-5.2-14.7-12.9-14.7-25.6
			c0-14.1,7.2-24.5,18.1-24.5c5.7,0,9.9,2.1,12.3,4.4l-2,9.5c-1.8-1.6-5.5-4.3-10.6-4.3c-7.6,0-10.5,7.4-10.5,13.5
			c0,8.4,3.4,12.6,11.1,17.4c9.4,5.9,14.2,13.3,14.2,26.5c0,13.9-6.4,26-19.5,26c-5.4,0-11.3-2.5-14.2-5.8L215,420.9z"/>
		<path d="M256.8,344.8h7.2v43.6h0.2c1.5-3.5,3-6.7,4.4-9.6l17.1-33.9h8.9l-20.2,38.3l21.8,52h-8.5l-18.4-44.4l-5.3,9.9v34.4h-7.2
			V344.8z"/>
		<path d="M348,389c0,31.1-11.7,47.6-25.9,47.6c-14.7,0-25.1-18.5-25.1-45.8c0-28.7,11-47.4,25.9-47.4
			C338.2,343.3,348,362.2,348,389z M304.7,390.5c0,19.3,6.5,36.6,17.8,36.6c11.4,0,17.9-17,17.9-37.5c0-18-5.8-36.7-17.8-36.7
			C310.7,352.9,304.7,370.7,304.7,390.5z"/>
		<path d="M357.4,344.8h7.2v80.5h23.9v9.8h-31.1V344.8z"/>
		<path d="M425.4,392.8h-21.7v32.6h24.2v9.8h-31.4v-90.3h30.1v9.8h-22.9v28.5h21.7V392.8z"/>
	</g>
</g>
</svg>
